<svg width="54" height="54" viewBox="0 0 54 54" fill="none" xmlns="http://www.w3.org/2000/svg">
<circle cx="27" cy="27" r="27" fill="#F61067" fill-opacity="0.02"/>
<circle cx="27" cy="27" r="26.5" stroke="#F61067" stroke-opacity="0.5"/>
<path d="M27.3749 24.7901C25.9791 24.7901 24.8432 25.9256 24.8432 27.3214C24.8432 28.7172 25.9791 29.8526 27.3749 29.8526C28.7707 29.8526 29.9066 28.7172 29.9066 27.3214C29.9066 25.9256 28.7707 24.7901 27.3749 24.7901ZM27.3749 28.4062C26.7756 28.4062 26.2901 27.9203 26.2901 27.3214C26.2901 26.722 26.776 26.2366 27.3749 26.2366C27.9738 26.2366 28.4598 26.722 28.4598 27.3214C28.4598 27.9203 27.9743 28.4062 27.3749 28.4062ZM35.9052 27.3214C36.6081 26.4052 37.1125 25.4853 37.3476 24.6093C37.6201 23.5874 37.5257 22.6467 37.0737 21.8887C36.2497 20.5101 34.3453 19.9469 31.9425 20.1516C30.8916 17.4595 29.253 15.75 27.3749 15.75C25.4968 15.75 23.8583 17.459 22.8079 20.1512C20.4045 19.9464 18.5007 20.5096 17.6776 21.8892C17.2242 22.6467 17.1297 23.5874 17.4023 24.6093C17.6373 25.4853 18.1418 26.4052 18.8447 27.3214C18.1418 28.2376 17.6373 29.1574 17.4023 30.0334C17.1297 31.0554 17.2242 31.9961 17.6762 32.7541C18.3926 33.9519 19.9182 34.5404 21.8821 34.5404C22.1696 34.5404 22.4924 34.4884 22.7975 34.4631C23.8475 37.1715 25.4905 38.8928 27.3749 38.8928C29.2594 38.8928 30.9024 37.1715 31.9524 34.4631C32.2575 34.4884 32.5803 34.5404 32.8677 34.5404C34.8299 34.5404 36.3572 33.9519 37.0723 32.7541C37.5257 31.9961 37.6206 31.0554 37.3476 30.0334C37.1125 29.1574 36.6081 28.2376 35.9052 27.3214ZM18.8008 24.2351C18.6272 23.591 18.6679 23.0508 18.9197 22.6305C19.3364 21.9312 20.3987 21.5465 21.8641 21.5465C22.0146 21.5465 22.1773 21.5587 22.336 21.5669C22.0851 22.4582 21.8943 23.4278 21.7678 24.4543C21.0432 25.0148 20.3815 25.597 19.8097 26.1923C19.3251 25.5188 18.9671 24.8552 18.8008 24.2351ZM21.6091 28.168C21.2995 27.8878 21.0116 27.6057 20.7444 27.3214C21.0111 27.0371 21.2995 26.755 21.6091 26.4748C21.5996 26.7555 21.5883 27.0348 21.5883 27.3214C21.5883 27.608 21.5992 27.8873 21.6091 28.168ZM18.9183 32.0123C18.6684 31.592 18.6272 31.0518 18.8013 30.4077C18.9676 29.7875 19.3256 29.124 19.8097 28.4505C20.3815 29.0458 21.0437 29.628 21.7678 30.1885C21.8943 31.2163 22.0855 32.1863 22.3364 33.0786C20.6314 33.1668 19.3798 32.7839 18.9183 32.0123ZM31.339 23.3012C30.9603 23.0608 30.5751 22.8235 30.172 22.5988C29.8813 22.4365 29.5907 22.2865 29.3005 22.14C29.8763 21.9674 30.4269 21.8381 30.9535 21.7423C31.1074 22.2553 31.236 22.7756 31.339 23.3012ZM27.3749 17.1964C28.4629 17.1964 29.6133 18.373 30.4576 20.3591C29.4763 20.5539 28.4381 20.8636 27.3754 21.279C26.3123 20.8636 25.274 20.553 24.2922 20.3582C25.1366 18.3725 26.287 17.1964 27.3749 17.1964ZM23.7964 21.7423C24.323 21.8381 24.8735 21.9669 25.4489 22.14C25.1587 22.2865 24.8681 22.4365 24.5779 22.5988C24.1747 22.8235 23.7896 23.0608 23.4108 23.3012C23.5138 22.7756 23.6425 22.2553 23.7964 21.7423ZM23.4108 31.3415C23.7896 31.582 24.1747 31.8193 24.5779 32.044C24.8817 32.2135 25.1827 32.3373 25.486 32.4896C24.8984 32.6673 24.3338 32.8042 23.7968 32.9023C23.6504 32.4128 23.5189 31.8944 23.4108 31.3415ZM27.3749 37.4464C26.2829 37.4464 25.1276 36.2607 24.2823 34.2606C25.2686 34.0667 26.3059 33.7593 27.3749 33.3421C28.4439 33.7598 29.4813 34.0667 30.4676 34.2606C29.6223 36.2607 28.467 37.4464 27.3749 37.4464ZM30.9535 32.9019C30.4169 32.8042 29.8528 32.6673 29.2652 32.4896C29.5681 32.3373 29.8691 32.2135 30.1724 32.0444C30.5756 31.8198 30.9607 31.5825 31.3395 31.342C31.231 31.8939 31.0999 32.4119 30.9535 32.9019ZM31.6175 29.4038C30.9503 29.8883 30.2348 30.3544 29.4686 30.7815C28.759 31.1775 28.0597 31.5133 27.3758 31.803C26.6915 31.5133 25.9918 31.1775 25.2812 30.7815C24.5151 30.3539 23.7996 29.8883 23.1324 29.4038C23.0696 28.7384 23.0348 28.0442 23.0348 27.3214C23.0348 26.5986 23.0696 25.9043 23.1324 25.239C23.7996 24.7544 24.5151 24.2884 25.2812 23.8613C25.9904 23.4658 26.691 23.1254 27.3745 22.8357C28.0584 23.1254 28.759 23.4658 29.4686 23.8613C30.2348 24.2889 30.9503 24.7544 31.6175 25.239C31.6799 25.9043 31.7151 26.5986 31.7151 27.3214C31.7151 28.0442 31.6799 28.7384 31.6175 29.4038ZM32.8863 21.5461C34.3512 21.5461 35.4139 21.9312 35.832 22.63C36.082 23.0504 36.1231 23.5905 35.9491 24.2346C35.7827 24.8548 35.4247 25.5183 34.9406 26.1918C34.3688 25.5965 33.7067 25.0143 32.9825 24.4539C32.856 23.4269 32.6652 22.4578 32.4144 21.5664C32.573 21.5583 32.7357 21.5461 32.8863 21.5461ZM33.1407 26.4748C33.4504 26.755 33.7383 27.0371 34.0054 27.3214C33.7383 27.6057 33.4504 27.8878 33.1407 28.168C33.1502 27.8873 33.1615 27.608 33.1615 27.3214C33.1615 27.0348 33.1507 26.7555 33.1407 26.4748ZM35.8302 32.0123C35.3709 32.7839 34.1193 33.1668 32.4135 33.0777C32.6648 32.1854 32.8555 31.2159 32.9821 30.1885C33.7067 29.628 34.3684 29.0458 34.9402 28.4505C35.4243 29.124 35.7827 29.7875 35.9486 30.4077C36.1226 31.0518 36.082 31.592 35.8302 32.0123Z" fill="#F61067"/>
</svg>
